<svg xmlns="http://www.w3.org/2000/svg" width="600" height="80" viewBox="0 0 600 80">
  <defs>
    <clipPath id="f4l-clip">
      <rect x="4" y="4" width="72" height="72" rx="14" ry="14"/>
    </clipPath>
  </defs>

  <rect x="4" y="4" width="72" height="72" rx="14" ry="14" fill="#1e3a5f"/>

  <g clip-path="url(#f4l-clip)">
    <path d="M14 33 L14 27 Q14 23 18 23 L28 23 Q30.5 23 31.5 25 L33.5 29 Q34.5 31 37 31 L60 31 Q63 31 63 34 L63 57 Q63 60 60 60 L18 60 Q14 60 14 57 Z"
          fill="rgba(255,255,255,0.24)" stroke="rgba(255,255,255,0.48)" stroke-width="3" stroke-linejoin="round" stroke-linecap="round"/>

    <circle cx="28.5" cy="23" r="2.8" fill="rgba(255,255,255,0.95)"/>

    <path d="M37.4 14.5 A12.3 12.3 0 0 1 37.4 31.5"
          fill="none" stroke="rgba(255,255,255,0.70)" stroke-width="3" stroke-linecap="round"/>

    <path d="M44.5 7.0 A22.5 22.5 0 0 1 44.5 39.0"
          fill="none" stroke="rgba(255,255,255,0.50)" stroke-width="2.8" stroke-linecap="round"/>

    <path d="M51.5 0.0 A32.5 32.5 0 0 1 51.5 46.0"
          fill="none" stroke="rgba(255,255,255,0.35)" stroke-width="2.5" stroke-linecap="round"/>

    <circle cx="49" cy="31" r="4.8" fill="#2dd4bf"/>
  </g>

  <text x="92" y="50" font-family="Inter, system-ui, sans-serif" font-size="32" fill="#1e3a5f">
    <tspan font-weight="400">Docket</tspan><tspan font-weight="700">Radar</tspan>
  </text>
</svg>