<svg xmlns="http://www.w3.org/2000/svg" width="600" height="80" viewBox="0 0 600 80">
  <defs>
    <clipPath id="f3-logo-clip">
      <rect x="4" y="4" width="72" height="72" rx="14.4" ry="14.4"/>
    </clipPath>
  </defs>

  <rect x="4" y="4" width="72" height="72" rx="14.4" ry="14.4" fill="#1e3a5f"/>

  <g clip-path="url(#f3-logo-clip)">

    <path d="M17.5 35.5 L17.5 29.9 Q17.5 27.6 19.8 27.6 L28.8 27.6 Q31 27.6 32.1 29.9 L33.8 32.1 Q34.4 33.3 36.1 33.3 L50.1 33.3 Q52.4 33.3 52.4 35.5 L52.4 54.6 Q52.4 56.9 50.1 56.9 L19.8 56.9 Q17.5 56.9 17.5 54.6 Z"
          fill="rgba(255,255,255,0.28)" stroke="rgba(255,255,255,0.50)" stroke-width="2.8" stroke-linejoin="round"/>

    <path d="M34.9 42.3 L52.2 0.7 A45,45 0 0,1 78.9 32.5 Z"
          fill="rgba(255,255,255,0.10)"/>

    <path d="M34.9 42.3 L43.1 22.5 A21.4,21.4 0 0,1 55.8 37.6"
          fill="none" stroke="rgba(255,255,255,0.55)" stroke-width="3.1" stroke-linecap="round"/>

    <path d="M34.9 42.3 L52.2 0.7 A45,45 0 0,1 78.9 32.5"
          fill="none" stroke="rgba(255,255,255,0.65)" stroke-width="2.8" stroke-linecap="round"/>

    <circle cx="71.5" cy="8.5" r="5.1" fill="#2dd4bf"/>

    <circle cx="34.9" cy="42.3" r="2.3" fill="rgba(255,255,255,0.90)"/>

  </g>

  <text x="92" y="50" font-family="Inter, system-ui, sans-serif" font-size="32" fill="#1e3a5f">
    <tspan font-weight="400">Docket</tspan><tspan font-weight="700">Radar</tspan>
  </text>
</svg>