<svg xmlns="http://www.w3.org/2000/svg" width="600" height="80" viewBox="0 0 600 80">
  <g transform="translate(4, 4) scale(0.5625)">
    <defs>
      <clipPath id="g1-logo-bg">
        <rect x="4" y="4" width="120" height="120" rx="24" ry="24"/>
      </clipPath>
    </defs>
    <rect x="4" y="4" width="120" height="120" rx="24" ry="24" fill="#1e3a5f"/>
    <g clip-path="url(#g1-logo-bg)">
      <g transform="translate(38, 56) rotate(-25)">
        <rect x="-6" y="-7" width="48" height="14" rx="7" fill="rgba(255,255,255,0.85)"/>
        <line x1="30" y1="7" x2="46" y2="36" stroke="rgba(255,255,255,0.60)" stroke-width="5" stroke-linecap="round"/>
      </g>
      <path d="M 60 56 A 22 22 0 0 1 38 78" fill="none" stroke="rgba(255,255,255,0.60)" stroke-width="5" stroke-linecap="round"/>
      <path d="M 74 56 A 36 36 0 0 1 38 92" fill="none" stroke="rgba(255,255,255,0.45)" stroke-width="5" stroke-linecap="round"/>
      <path d="M 88 56 A 50 50 0 0 1 38 106" fill="none" stroke="rgba(255,255,255,0.28)" stroke-width="5" stroke-linecap="round"/>
      <circle cx="67" cy="77" r="8" fill="#2dd4bf"/>
    </g>
  </g>
  <text x="92" y="50" font-family="Inter, system-ui, sans-serif" font-size="32" fill="#1e3a5f"><tspan font-weight="400">Docket</tspan><tspan font-weight="700">Radar</tspan></text>
</svg>