<svg xmlns="http://www.w3.org/2000/svg" width="600" height="80" viewBox="0 0 600 80">
  <svg x="4" y="4" width="72" height="72" viewBox="0 0 128 128">
    <rect x="4" y="4" width="120" height="120" rx="24" ry="24" fill="#1e3a5f"/>
    <line x1="64" y1="64" x2="88" y2="30" stroke="rgba(255,255,255,0.40)" stroke-width="3" stroke-linecap="round"/>
    <circle cx="64" cy="64" r="42" fill="none" stroke="rgba(255,255,255,0.50)" stroke-width="5"/>
    <g transform="rotate(12, 64, 64)">
      <path d="M39,53 L39,47 Q39,44 42,44 L54,44 Q56,44 57,46 L59,49 Q60,51 62,51 L86,51 Q89,51 89,54 L89,80 Q89,83 86,83 L42,83 Q39,83 39,80 Z" fill="rgba(255,255,255,0.30)" stroke="rgba(255,255,255,0.50)" stroke-width="2.5" stroke-linejoin="round"/>
    </g>
    <circle cx="88" cy="30" r="9" fill="#2dd4bf"/>
  </svg>
  <text x="92" y="50" font-family="Inter, system-ui, sans-serif" font-size="32" fill="#1e3a5f"><tspan font-weight="400">Docket</tspan><tspan font-weight="700">Radar</tspan></text>
</svg>
