<svg xmlns="http://www.w3.org/2000/svg" width="128" height="128" viewBox="0 0 128 128">
  <defs>
    <clipPath id="f3-clip">
      <rect x="4" y="4" width="120" height="120" rx="24" ry="24"/>
    </clipPath>
  </defs>

  <rect x="4" y="4" width="120" height="120" rx="24" ry="24" fill="#1e3a5f"/>

  <g clip-path="url(#f3-clip)">

    <path d="M24 56 L24 46 Q24 42 28 42 L44 42 Q48 42 50 46 L53 50 Q54 52 57 52 L82 52 Q86 52 86 56 L86 90 Q86 94 82 94 L28 94 Q24 94 24 90 Z"
          fill="rgba(255,255,255,0.28)" stroke="rgba(255,255,255,0.50)" stroke-width="5" stroke-linejoin="round"/>

    <path d="M55 68 L85.6 -5.9 A80,80 0 0,1 133.1 50.7 Z"
          fill="rgba(255,255,255,0.10)"/>

    <path d="M55 68 L69.5 32.9 A38,38 0 0,1 92.1 59.8"
          fill="none" stroke="rgba(255,255,255,0.55)" stroke-width="5.5" stroke-linecap="round"/>

    <path d="M55 68 L85.6 -5.9 A80,80 0 0,1 133.1 50.7"
          fill="none" stroke="rgba(255,255,255,0.65)" stroke-width="5" stroke-linecap="round"/>

    <circle cx="120" cy="8" r="9" fill="#2dd4bf"/>

    <circle cx="55" cy="68" r="4" fill="rgba(255,255,255,0.90)"/>

  </g>
</svg>