<svg xmlns="http://www.w3.org/2000/svg" viewBox="0 0 600 80" width="600" height="80">
  <svg x="4" y="4" width="72" height="72" viewBox="0 0 128 128" overflow="visible">
    <rect x="4" y="4" width="120" height="120" rx="24" ry="24" fill="#1e3a5f"/>

    <path d="M 36 16 L 80 16 L 96 32 L 96 110 Q 96 114 92 114 L 40 114 Q 36 114 36 110 Z"
          fill="rgba(255,255,255,0.14)"/>
    <path d="M 80 16 L 80 28 Q 80 32 84 32 L 96 32 Z"
          fill="rgba(255,255,255,0.24)"/>

    <line x1="48" y1="46" x2="84" y2="46"
          stroke="rgba(255,255,255,0.55)"
          stroke-width="5"
          stroke-linecap="round"/>

    <line x1="48" y1="63" x2="78" y2="63"
          stroke="rgba(255,255,255,0.55)"
          stroke-width="5"
          stroke-linecap="round"/>

    <circle cx="58" cy="80" r="22"
            fill="none"
            stroke="rgba(45,212,191,0.18)"
            stroke-width="1.2"/>
    <circle cx="58" cy="80" r="14"
            fill="none"
            stroke="rgba(45,212,191,0.32)"
            stroke-width="1.5"/>

    <line x1="48" y1="80" x2="68" y2="80"
          stroke="#2dd4bf"
          stroke-width="5"
          stroke-linecap="round"/>

    <line x1="48" y1="97" x2="74" y2="97"
          stroke="rgba(255,255,255,0.40)"
          stroke-width="5"
          stroke-linecap="round"/>
  </svg>

  <text x="98" y="40"
        dominant-baseline="central"
        font-family="'Inter', -apple-system, BlinkMacSystemFont, 'Segoe UI', Roboto, Helvetica, Arial, sans-serif"
        font-size="40"
        letter-spacing="-0.6"
        fill="#1e3a5f">
    <tspan font-weight="400">Docket</tspan><tspan font-weight="700">Radar</tspan>
  </text>
</svg>
